<svg width="24" height="25" viewBox="0 0 24 25" fill="none" xmlns="http://www.w3.org/2000/svg">
<path d="M18.3151 19.6862L19.0974 18.9199C22.717 19.0365 22.7726 18.9113 22.9317 18.5445L23.9261 16.1573L24 15.931L23.9192 15.733C23.8766 15.6284 23.7453 15.3164 21.4853 13.1915V12.0738C24.093 9.59664 24.0374 9.46978 23.8887 9.1072L22.8987 6.69516C22.75 6.33344 22.6935 6.19201 19.1 6.28887L18.3177 5.49172C18.3985 4.3175 18.3574 3.13822 18.1951 1.97223L18.0943 1.7468L15.5092 0.632499C15.1284 0.461067 14.9946 0.399352 12.5537 3.02054L11.4567 3.00425C8.94372 0.359066 8.82463 0.407066 8.44824 0.557069L6.04477 1.51537C5.66838 1.66537 5.53539 1.71852 5.68142 5.31857L4.90518 6.08144C1.28736 5.96487 1.23173 6.09172 1.07439 6.45687L0.0782327 8.84491L0 9.07377L0.0817096 9.27263C0.124303 9.37549 0.250344 9.68407 2.51561 11.8115V12.9258C-0.0921403 15.403 -0.0356392 15.5299 0.113872 15.8933L1.10308 18.3079C1.25433 18.6773 1.30822 18.8085 4.90083 18.7159L5.68316 19.5174C5.60207 20.6898 5.64197 21.8672 5.80225 23.0317L5.90308 23.2588L8.50474 24.38C8.88287 24.536 9.01413 24.5917 11.448 21.98L12.545 21.9937C15.0615 24.6423 15.1901 24.5909 15.5578 24.4443L17.9561 23.4886C18.3351 23.3403 18.4672 23.288 18.3151 19.6862ZM8.00753 14.0941C7.70421 13.3125 7.64176 12.4598 7.82802 11.6433C8.01428 10.8267 8.44094 10.0826 9.05448 9.5043C9.66802 8.92598 10.4411 8.53921 11.2767 8.39254C12.1123 8.24586 12.9733 8.3458 13.7515 8.67983C14.5298 9.01385 15.1906 9.56708 15.6512 10.2701C16.1118 10.9731 16.3515 11.7946 16.3404 12.6315C16.3292 13.4683 16.0677 14.2833 15.5886 14.9742C15.1094 15.665 14.4341 16.201 13.6472 16.5147C12.5736 16.9287 11.3775 16.9064 10.3205 16.4528C9.26352 15.9991 8.43186 15.151 8.00753 14.0941Z" fill="#282F44"/>
</svg>
